<svg width="518" height="506" viewBox="0 0 518 506" fill="none" xmlns="http://www.w3.org/2000/svg">
    <path d="M-265.689 92.4559C-258.861 43.863 -210.297 12.8134 -163.325 27.0085L355.919 183.925C382.669 192.008 403.261 213.464 410.241 240.522L496.375 574.436C508.031 619.624 478.694 665.156 432.727 673.216L-258.655 794.446C-312.156 803.827 -359.252 758.304 -351.694 704.516L-265.689 92.4559Z" fill="url(#paint0_linear_320_465)" />
    <g opacity="0.07">
        <mask id="path-2-inside-1_320_465" fill="#F8F8F8">
            <path fill-rule="evenodd" clip-rule="evenodd" d="M-56.5 528.764C48.7102 528.764 134 443.474 134 338.264C134 233.053 48.7102 147.764 -56.5 147.764C-161.71 147.764 -247 233.053 -247 338.264C-247 443.474 -161.71 528.764 -56.5 528.764ZM-56.5 429.764C-5.96594 429.764 35 388.798 35 338.264C35 287.73 -5.96594 246.764 -56.5 246.764C-107.034 246.764 -148 287.73 -148 338.264C-148 388.798 -107.034 429.764 -56.5 429.764Z" />
        </mask>
        <path fill-rule="evenodd" clip-rule="evenodd" d="M-56.5 528.764C48.7102 528.764 134 443.474 134 338.264C134 233.053 48.7102 147.764 -56.5 147.764C-161.71 147.764 -247 233.053 -247 338.264C-247 443.474 -161.71 528.764 -56.5 528.764ZM-56.5 429.764C-5.96594 429.764 35 388.798 35 338.264C35 287.73 -5.96594 246.764 -56.5 246.764C-107.034 246.764 -148 287.73 -148 338.264C-148 388.798 -107.034 429.764 -56.5 429.764Z" fill="#F8F8F8" />
        <path d="M133 338.264C133 442.922 48.158 527.764 -56.5 527.764V529.764C49.2625 529.764 135 444.026 135 338.264H133ZM-56.5 148.764C48.158 148.764 133 233.606 133 338.264H135C135 232.501 49.2625 146.764 -56.5 146.764V148.764ZM-246 338.264C-246 233.606 -161.158 148.764 -56.5 148.764V146.764C-162.263 146.764 -248 232.501 -248 338.264H-246ZM-56.5 527.764C-161.158 527.764 -246 442.922 -246 338.264H-248C-248 444.026 -162.263 529.764 -56.5 529.764V527.764ZM34 338.264C34 388.245 -6.51823 428.764 -56.5 428.764V430.764C-5.41365 430.764 36 389.35 36 338.264H34ZM-56.5 247.764C-6.51823 247.764 34 288.282 34 338.264H36C36 287.177 -5.41365 245.764 -56.5 245.764V247.764ZM-147 338.264C-147 288.282 -106.482 247.764 -56.5 247.764V245.764C-107.586 245.764 -149 287.177 -149 338.264H-147ZM-56.5 428.764C-106.482 428.764 -147 388.245 -147 338.264H-149C-149 389.35 -107.586 430.764 -56.5 430.764V428.764Z" fill="#F8F8F8" mask="url(#path-2-inside-1_320_465)" />
    </g>
    <defs>
        <linearGradient id="paint0_linear_320_465" x1="-367" y1="406.722" x2="517.999" y2="406.722" gradientUnits="userSpaceOnUse">
            <stop stop-color="#2E43AF" />
            <stop offset="1" stop-color="#4961DC" />
        </linearGradient>
    </defs>
</svg>