<svg width="632" height="814" viewBox="0 0 632 814" fill="none" xmlns="http://www.w3.org/2000/svg">
    <path d="M783.192 720.918C776.407 769.208 728.147 800.063 681.468 785.957L162.224 629.04C135.642 621.007 115.178 599.686 108.242 572.797L22.1078 238.883C10.5243 193.977 39.6787 148.73 85.3576 140.721L776.74 19.4903C829.906 10.168 876.708 55.4061 869.197 108.858L783.192 720.918Z" fill="url(#paint0_linear_205_159)" stroke="#252424" />
    <g opacity="0.07">
        <mask id="path-2-inside-1_205_159" fill="white">
            <path fill-rule="evenodd" clip-rule="evenodd" d="M569.499 327.68C464.288 327.68 378.999 412.97 378.999 518.18C378.999 623.39 464.288 708.68 569.499 708.68C674.709 708.68 759.999 623.39 759.999 518.18C759.999 412.97 674.709 327.68 569.499 327.68ZM569.499 426.68C518.965 426.68 477.999 467.646 477.999 518.18C477.999 568.714 518.965 609.68 569.499 609.68C620.033 609.68 660.999 568.714 660.999 518.18C660.999 467.646 620.033 426.68 569.499 426.68Z" />
        </mask>
        <path fill-rule="evenodd" clip-rule="evenodd" d="M569.499 327.68C464.288 327.68 378.999 412.97 378.999 518.18C378.999 623.39 464.288 708.68 569.499 708.68C674.709 708.68 759.999 623.39 759.999 518.18C759.999 412.97 674.709 327.68 569.499 327.68ZM569.499 426.68C518.965 426.68 477.999 467.646 477.999 518.18C477.999 568.714 518.965 609.68 569.499 609.68C620.033 609.68 660.999 568.714 660.999 518.18C660.999 467.646 620.033 426.68 569.499 426.68Z" fill="#F8F8F8" />
        <path d="M379.999 518.18C379.999 413.522 464.841 328.68 569.499 328.68L569.499 326.68C463.736 326.68 377.999 412.418 377.999 518.18L379.999 518.18ZM569.499 707.68C464.841 707.68 379.999 622.838 379.999 518.18L377.999 518.18C377.999 623.943 463.736 709.68 569.499 709.68L569.499 707.68ZM758.999 518.18C758.999 622.838 674.157 707.68 569.499 707.68L569.499 709.68C675.261 709.68 760.999 623.943 760.999 518.18L758.999 518.18ZM569.499 328.68C674.157 328.68 758.999 413.522 758.999 518.18L760.999 518.18C760.999 412.418 675.261 326.68 569.499 326.68L569.499 328.68ZM478.999 518.18C478.999 468.198 519.517 427.68 569.499 427.68L569.499 425.68C518.412 425.68 476.999 467.094 476.999 518.18L478.999 518.18ZM569.499 608.68C519.517 608.68 478.999 568.162 478.999 518.18L476.999 518.18C476.999 569.267 518.412 610.68 569.499 610.68L569.499 608.68ZM659.999 518.18C659.999 568.162 619.48 608.68 569.499 608.68L569.499 610.68C620.585 610.68 661.999 569.267 661.999 518.18L659.999 518.18ZM569.499 427.68C619.48 427.68 659.999 468.198 659.999 518.18L661.999 518.18C661.999 467.094 620.585 425.68 569.499 425.68L569.499 427.68Z" fill="#F8F8F8" mask="url(#path-2-inside-1_205_159)" />
    </g>
    <path opacity="0.15" d="M714.717 192.59L525.385 254.463L566.467 59.56L714.717 192.59Z" fill="white" stroke="#F8F8F8" />
    <defs>
        <linearGradient id="paint0_linear_205_159" x1="884.999" y1="406.722" x2="3.55568e-05" y2="406.722" gradientUnits="userSpaceOnUse">
            <stop stop-color="#2E43AF" />
            <stop offset="1" stop-color="#4961DC" />
        </linearGradient>
    </defs>
</svg>